<?xml version="1.0" encoding="UTF-8" standalone="no"?><svg xmlns="http://www.w3.org/2000/svg" xmlns:xlink="http://www.w3.org/1999/xlink" contentScriptType="application/ecmascript" contentStyleType="text/css" height="951px" preserveAspectRatio="none" style="width:557px;height:951px;background:#FFFFFF;" version="1.1" viewBox="0 0 557 951" width="557px" zoomAndPan="magnify"><defs><filter height="300%" id="frvwajce7tv57" width="300%" x="-1" y="-1"><feGaussianBlur result="blurOut" stdDeviation="2.0"/><feColorMatrix in="blurOut" result="blurOut2" type="matrix" values="0 0 0 0 0 0 0 0 0 0 0 0 0 0 0 0 0 0 .4 0"/><feOffset dx="4.0" dy="4.0" in="blurOut2" result="blurOut3"/><feBlend in="SourceGraphic" in2="blurOut3" mode="normal"/></filter></defs><g><!--MD5=[ec2818015826bb006e714a95d4dc193c]
cluster Logging--><polygon fill="#FFFFFF" filter="url(#frvwajce7tv57)" points="16,806,80,806,87,828.4883,358,828.4883,358,944,16,944,16,806" style="stroke:#000000;stroke-width:1.5;"/><line style="stroke:#000000;stroke-width:1.5;" x1="16" x2="87" y1="828.4883" y2="828.4883"/><text fill="#000000" font-family="sans-serif" font-size="14" font-weight="bold" lengthAdjust="spacing" textLength="58" x="20" y="821.5352">Logging</text><!--MD5=[4ce03ebbd12f92cb664c8abd60754c8b]
class Logging.LogHandler--><rect codeLine="1" fill="#FEFECE" filter="url(#frvwajce7tv57)" height="86.8652" id="Logging.LogHandler" style="stroke:#A80036;stroke-width:1.5;" width="309" x="32.5" y="841"/><ellipse cx="149.75" cy="857" fill="#B4A7E5" rx="11" ry="11" style="stroke:#A80036;stroke-width:1.0;"/><path d="M146.1777,853.2651 L146.1777,851.1069 L153.5571,851.1069 L153.5571,853.2651 L151.0918,853.2651 L151.0918,861.3418 L153.5571,861.3418 L153.5571,863.5 L146.1777,863.5 L146.1777,861.3418 L148.6431,861.3418 L148.6431,853.2651 Z " fill="#000000"/><text fill="#000000" font-family="sans-serif" font-size="12" font-style="italic" lengthAdjust="spacing" textLength="66" x="170.25" y="861.5352">LogHandler</text><line style="stroke:#A80036;stroke-width:1.5;" x1="33.5" x2="340.5" y1="873" y2="873"/><ellipse cx="43.5" cy="884" rx="3" ry="3" style="stroke:#038048;stroke-width:1.0;fill:none;"/><text fill="#000000" font-family="sans-serif" font-size="11" lengthAdjust="spacing" textLength="77" x="52.5" y="887.6348">logLevel: Level</text><ellipse cx="43.5" cy="896.9551" rx="3" ry="3" style="stroke:#038048;stroke-width:1.0;fill:none;"/><text fill="#000000" font-family="sans-serif" font-size="11" lengthAdjust="spacing" textLength="103" x="52.5" y="900.5898">metadata: Metadata</text><line style="stroke:#A80036;stroke-width:1.5;" x1="33.5" x2="340.5" y1="906.9102" y2="906.9102"/><ellipse cx="43.5" cy="917.9102" fill="#84BE84" rx="3" ry="3" style="stroke:#038048;stroke-width:1.0;"/><text fill="#000000" font-family="sans-serif" font-size="11" lengthAdjust="spacing" textLength="283" x="52.5" y="921.5449">log(level:message:metadata:source:file:function:line:)</text><!--MD5=[1756ffd22b3f5e1884725dad665d3c66]
class LogHandler--><rect codeLine="7" fill="#FEFECE" filter="url(#frvwajce7tv57)" height="60.9551" id="LogHandler" style="stroke:#A80036;stroke-width:1.5;" width="137" x="118.5" y="661.5"/><ellipse cx="151.05" cy="677.5" fill="#B4A7E5" rx="11" ry="11" style="stroke:#A80036;stroke-width:1.0;"/><path d="M147.4777,673.7651 L147.4777,671.6069 L154.8571,671.6069 L154.8571,673.7651 L152.3918,673.7651 L152.3918,681.8418 L154.8571,681.8418 L154.8571,684 L147.4777,684 L147.4777,681.8418 L149.9431,681.8418 L149.9431,673.7651 Z " fill="#000000"/><text fill="#000000" font-family="sans-serif" font-size="12" font-style="italic" lengthAdjust="spacing" textLength="66" x="168.95" y="682.0352">LogHandler</text><line style="stroke:#A80036;stroke-width:1.5;" x1="119.5" x2="254.5" y1="693.5" y2="693.5"/><ellipse cx="129.5" cy="704.5" rx="3" ry="3" style="stroke:#038048;stroke-width:1.0;fill:none;"/><text fill="#000000" font-family="sans-serif" font-size="11" lengthAdjust="spacing" textLength="111" x="138.5" y="708.1348">loggerQueue: Queue</text><line style="stroke:#A80036;stroke-width:1.5;" x1="119.5" x2="254.5" y1="714.4551" y2="714.4551"/><!--MD5=[248f897e4bb16c2722904b15df30346f]
class Logger--><rect codeLine="10" fill="#FEFECE" filter="url(#frvwajce7tv57)" height="48" id="Logger" style="stroke:#A80036;stroke-width:1.5;" width="71" x="160.5" y="13.5"/><ellipse cx="175.5" cy="29.5" fill="#ADD1B2" rx="11" ry="11" style="stroke:#A80036;stroke-width:1.0;"/><path d="M177.9731,35.6431 Q177.3921,35.9419 176.7529,36.0913 Q176.1138,36.2407 175.4082,36.2407 Q172.9014,36.2407 171.5815,34.5889 Q170.2617,32.937 170.2617,29.8159 Q170.2617,26.6865 171.5815,25.0347 Q172.9014,23.3828 175.4082,23.3828 Q176.1138,23.3828 176.7612,23.5322 Q177.4087,23.6816 177.9731,23.9805 L177.9731,26.7031 Q177.3423,26.1221 176.7488,25.8523 Q176.1553,25.5825 175.5244,25.5825 Q174.1797,25.5825 173.4949,26.6492 Q172.8101,27.7158 172.8101,29.8159 Q172.8101,31.9077 173.4949,32.9744 Q174.1797,34.041 175.5244,34.041 Q176.1553,34.041 176.7488,33.7712 Q177.3423,33.5015 177.9731,32.9204 Z " fill="#000000"/><text fill="#000000" font-family="sans-serif" font-size="12" lengthAdjust="spacing" textLength="39" x="189.5" y="34.0352">Logger</text><line style="stroke:#A80036;stroke-width:1.5;" x1="161.5" x2="230.5" y1="45.5" y2="45.5"/><line style="stroke:#A80036;stroke-width:1.5;" x1="161.5" x2="230.5" y1="53.5" y2="53.5"/><!--MD5=[86d4da345004f59290ee1239dad1cc96]
class HadesLogger--><rect codeLine="11" fill="#FEFECE" filter="url(#frvwajce7tv57)" height="60.9551" id="HadesLogger" style="stroke:#A80036;stroke-width:1.5;" width="136" x="267" y="7"/><ellipse cx="294.6" cy="23" fill="#ADD1B2" rx="11" ry="11" style="stroke:#A80036;stroke-width:1.0;"/><path d="M297.0731,29.1431 Q296.4921,29.4419 295.8529,29.5913 Q295.2138,29.7407 294.5082,29.7407 Q292.0014,29.7407 290.6815,28.0889 Q289.3617,26.437 289.3617,23.3159 Q289.3617,20.1865 290.6815,18.5347 Q292.0014,16.8828 294.5082,16.8828 Q295.2138,16.8828 295.8612,17.0322 Q296.5087,17.1816 297.0731,17.4805 L297.0731,20.2031 Q296.4423,19.6221 295.8488,19.3523 Q295.2553,19.0825 294.6244,19.0825 Q293.2797,19.0825 292.5949,20.1492 Q291.9101,21.2158 291.9101,23.3159 Q291.9101,25.4077 292.5949,26.4744 Q293.2797,27.541 294.6244,27.541 Q295.2553,27.541 295.8488,27.2712 Q296.4423,27.0015 297.0731,26.4204 Z " fill="#000000"/><text fill="#000000" font-family="sans-serif" font-size="12" lengthAdjust="spacing" textLength="76" x="311.4" y="27.5352">HadesLogger</text><line style="stroke:#A80036;stroke-width:1.5;" x1="268" x2="402" y1="39" y2="39"/><line style="stroke:#A80036;stroke-width:1.5;" x1="268" x2="402" y1="47" y2="47"/><ellipse cx="278" cy="58" fill="#84BE84" rx="3" ry="3" style="stroke:#038048;stroke-width:1.0;"/><text fill="#000000" font-family="sans-serif" font-size="11" lengthAdjust="spacing" textLength="110" x="287" y="61.6348">hadesHandler(label:)</text><!--MD5=[23602bc3abe8ab94df0ee090411eb384]
class ProxyLogHandler--><rect codeLine="14" fill="#FEFECE" filter="url(#frvwajce7tv57)" height="112.7754" id="ProxyLogHandler" style="stroke:#A80036;stroke-width:1.5;" width="226" x="83" y="128"/><ellipse cx="142.75" cy="144" fill="#ADD1B2" rx="11" ry="11" style="stroke:#A80036;stroke-width:1.0;"/><path d="M145.2231,150.1431 Q144.6421,150.4419 144.0029,150.5913 Q143.3638,150.7407 142.6582,150.7407 Q140.1514,150.7407 138.8315,149.0889 Q137.5117,147.437 137.5117,144.3159 Q137.5117,141.1865 138.8315,139.5347 Q140.1514,137.8828 142.6582,137.8828 Q143.3638,137.8828 144.0112,138.0322 Q144.6587,138.1816 145.2231,138.4805 L145.2231,141.2031 Q144.5923,140.6221 143.9988,140.3523 Q143.4053,140.0825 142.7744,140.0825 Q141.4297,140.0825 140.7449,141.1492 Q140.0601,142.2158 140.0601,144.3159 Q140.0601,146.4077 140.7449,147.4744 Q141.4297,148.541 142.7744,148.541 Q143.4053,148.541 143.9988,148.2712 Q144.5923,148.0015 145.2231,147.4204 Z " fill="#000000"/><text fill="#000000" font-family="sans-serif" font-size="12" lengthAdjust="spacing" textLength="98" x="163.25" y="148.5352">ProxyLogHandler</text><line style="stroke:#A80036;stroke-width:1.5;" x1="84" x2="308" y1="160" y2="160"/><rect fill="none" height="6" style="stroke:#C82930;stroke-width:1.0;" width="6" x="91" y="168"/><text fill="#000000" font-family="sans-serif" font-size="11" lengthAdjust="spacing" textLength="146" x="103" y="174.6348">handlers: [LogHandler] = []</text><rect fill="none" height="6" style="stroke:#C82930;stroke-width:1.0;" width="6" x="91" y="180.9551"/><text fill="#000000" font-family="sans-serif" font-size="11" lengthAdjust="spacing" textLength="123" x="103" y="187.5898">prettyMetadata: String?</text><line style="stroke:#A80036;stroke-width:1.5;" x1="84" x2="308" y1="193.9102" y2="193.9102"/><ellipse cx="94" cy="204.9102" fill="#84BE84" rx="3" ry="3" style="stroke:#038048;stroke-width:1.0;"/><text fill="#000000" font-family="sans-serif" font-size="11" lengthAdjust="spacing" textLength="197" x="103" y="208.5449">init(loggerQueue:logLevel:metadata:)</text><ellipse cx="94" cy="217.8652" fill="#84BE84" rx="3" ry="3" style="stroke:#038048;stroke-width:1.0;"/><text fill="#000000" font-family="sans-serif" font-size="11" lengthAdjust="spacing" textLength="137" x="103" y="221.5">add(handler: LogHandler)</text><rect fill="#F24D5C" height="6" style="stroke:#C82930;stroke-width:1.0;" width="6" x="91" y="227.8203"/><text fill="#000000" font-family="sans-serif" font-size="11" lengthAdjust="spacing" textLength="200" x="103" y="234.4551">prettify(_ metadata: Logger.Metadata)</text><!--MD5=[bbec33f60812412154564b7007ff2bd9]
class OSLogHandler--><rect codeLine="22" fill="#FEFECE" filter="url(#frvwajce7tv57)" height="99.8203" id="OSLogHandler" style="stroke:#A80036;stroke-width:1.5;" width="154" x="119" y="372"/><ellipse cx="152.45" cy="388" fill="#ADD1B2" rx="11" ry="11" style="stroke:#A80036;stroke-width:1.0;"/><path d="M154.9231,394.1431 Q154.3421,394.4419 153.7029,394.5913 Q153.0638,394.7407 152.3582,394.7407 Q149.8514,394.7407 148.5315,393.0889 Q147.2117,391.437 147.2117,388.3159 Q147.2117,385.1865 148.5315,383.5347 Q149.8514,381.8828 152.3582,381.8828 Q153.0638,381.8828 153.7112,382.0322 Q154.3587,382.1816 154.9231,382.4805 L154.9231,385.2031 Q154.2923,384.6221 153.6988,384.3523 Q153.1053,384.0825 152.4744,384.0825 Q151.1297,384.0825 150.4449,385.1492 Q149.7601,386.2158 149.7601,388.3159 Q149.7601,390.4077 150.4449,391.4744 Q151.1297,392.541 152.4744,392.541 Q153.1053,392.541 153.6988,392.2712 Q154.2923,392.0015 154.9231,391.4204 Z " fill="#000000"/><text fill="#000000" font-family="sans-serif" font-size="12" lengthAdjust="spacing" textLength="81" x="170.55" y="392.5352">OSLogHandler</text><line style="stroke:#A80036;stroke-width:1.5;" x1="120" x2="272" y1="404" y2="404"/><rect fill="none" height="6" style="stroke:#C82930;stroke-width:1.0;" width="6" x="127" y="412"/><text fill="#000000" font-family="sans-serif" font-size="11" lengthAdjust="spacing" textLength="116" x="139" y="418.6348">defaultLogger: OSLog</text><rect fill="none" height="6" style="stroke:#C82930;stroke-width:1.0;" width="6" x="127" y="424.9551"/><text fill="#000000" font-family="sans-serif" font-size="11" lengthAdjust="spacing" textLength="63" x="139" y="431.5898">label: String</text><rect fill="none" height="6" style="stroke:#C82930;stroke-width:1.0;" width="6" x="127" y="437.9102"/><text fill="#000000" font-family="sans-serif" font-size="11" lengthAdjust="spacing" textLength="128" x="139" y="444.5449">loggers: [String: OSLog]</text><line style="stroke:#A80036;stroke-width:1.5;" x1="120" x2="272" y1="450.8652" y2="450.8652"/><ellipse cx="130" cy="461.8652" fill="#84BE84" rx="3" ry="3" style="stroke:#038048;stroke-width:1.0;"/><text fill="#000000" font-family="sans-serif" font-size="11" lengthAdjust="spacing" textLength="103" x="139" y="465.5">init(label:category:)</text><!--MD5=[10e77f6acd5f6e74308969d7839d28be]
class FileLogHandler--><rect codeLine="29" fill="#FEFECE" filter="url(#frvwajce7tv57)" height="242.3262" id="FileLogHandler" style="stroke:#A80036;stroke-width:1.5;" width="202" x="308" y="301"/><ellipse cx="362.25" cy="317" fill="#ADD1B2" rx="11" ry="11" style="stroke:#A80036;stroke-width:1.0;"/><path d="M364.7231,323.1431 Q364.1421,323.4419 363.5029,323.5913 Q362.8638,323.7407 362.1582,323.7407 Q359.6514,323.7407 358.3315,322.0889 Q357.0117,320.437 357.0117,317.3159 Q357.0117,314.1865 358.3315,312.5347 Q359.6514,310.8828 362.1582,310.8828 Q362.8638,310.8828 363.5112,311.0322 Q364.1587,311.1816 364.7231,311.4805 L364.7231,314.2031 Q364.0923,313.6221 363.4988,313.3523 Q362.9053,313.0825 362.2744,313.0825 Q360.9297,313.0825 360.2449,314.1492 Q359.5601,315.2158 359.5601,317.3159 Q359.5601,319.4077 360.2449,320.4744 Q360.9297,321.541 362.2744,321.541 Q362.9053,321.541 363.4988,321.2712 Q364.0923,321.0015 364.7231,320.4204 Z " fill="#000000"/><text fill="#000000" font-family="sans-serif" font-size="12" lengthAdjust="spacing" textLength="85" x="382.75" y="321.5352">FileLogHandler</text><line style="stroke:#A80036;stroke-width:1.5;" x1="309" x2="509" y1="333" y2="333"/><ellipse cx="319" cy="344" rx="3" ry="3" style="stroke:#038048;stroke-width:1.0;fill:none;"/><text fill="#000000" font-family="sans-serif" font-size="11" lengthAdjust="spacing" textLength="74" x="328" y="347.6348">bufferSize: Int</text><ellipse cx="319" cy="356.9551" rx="3" ry="3" style="stroke:#038048;stroke-width:1.0;fill:none;"/><text fill="#000000" font-family="sans-serif" font-size="11" lengthAdjust="spacing" textLength="127" x="328" y="360.5898">currentLogFile: LogFile?</text><ellipse cx="319" cy="369.9102" rx="3" ry="3" style="stroke:#038048;stroke-width:1.0;fill:none;"/><text fill="#000000" font-family="sans-serif" font-size="11" lengthAdjust="spacing" textLength="176" x="328" y="373.5449">fileDateFormatter: DateFormatter</text><ellipse cx="319" cy="382.8652" rx="3" ry="3" style="stroke:#038048;stroke-width:1.0;fill:none;"/><text fill="#000000" font-family="sans-serif" font-size="11" lengthAdjust="spacing" textLength="112" x="328" y="386.5">maximumFileSize: Int</text><ellipse cx="319" cy="395.8203" rx="3" ry="3" style="stroke:#038048;stroke-width:1.0;fill:none;"/><text fill="#000000" font-family="sans-serif" font-size="11" lengthAdjust="spacing" textLength="173" x="328" y="399.4551">maximumNumberOfLogFiles: Int</text><rect fill="none" height="6" style="stroke:#C82930;stroke-width:1.0;" width="6" x="316" y="405.7754"/><text fill="#000000" font-family="sans-serif" font-size="11" lengthAdjust="spacing" textLength="68" x="328" y="412.4102">buffer: Data?</text><rect fill="none" height="6" style="stroke:#C82930;stroke-width:1.0;" width="6" x="316" y="418.7305"/><text fill="#000000" font-family="sans-serif" font-size="11" lengthAdjust="spacing" textLength="171" x="328" y="425.3652">logFileManager: LogFileManager</text><line style="stroke:#A80036;stroke-width:1.5;" x1="309" x2="509" y1="431.6855" y2="431.6855"/><ellipse cx="319" cy="442.6855" fill="#84BE84" rx="3" ry="3" style="stroke:#038048;stroke-width:1.0;"/><text fill="#000000" font-family="sans-serif" font-size="11" lengthAdjust="spacing" textLength="50" x="328" y="446.3203">cleanup()</text><ellipse cx="319" cy="455.6406" fill="#84BE84" rx="3" ry="3" style="stroke:#038048;stroke-width:1.0;"/><text fill="#000000" font-family="sans-serif" font-size="11" lengthAdjust="spacing" textLength="35" x="328" y="459.2754">flush()</text><ellipse cx="319" cy="468.5957" fill="#84BE84" rx="3" ry="3" style="stroke:#038048;stroke-width:1.0;"/><text fill="#000000" font-family="sans-serif" font-size="11" lengthAdjust="spacing" textLength="141" x="328" y="472.2305">generateNameForLogFile()</text><ellipse cx="319" cy="481.5508" fill="#84BE84" rx="3" ry="3" style="stroke:#038048;stroke-width:1.0;"/><text fill="#000000" font-family="sans-serif" font-size="11" lengthAdjust="spacing" textLength="99" x="328" y="485.1855">touchNewLogFile()</text><ellipse cx="319" cy="494.5059" fill="#84BE84" rx="3" ry="3" style="stroke:#038048;stroke-width:1.0;"/><text fill="#000000" font-family="sans-serif" font-size="11" lengthAdjust="spacing" textLength="88" x="328" y="498.1406">removeAllLogs()</text><ellipse cx="319" cy="507.4609" fill="#84BE84" rx="3" ry="3" style="stroke:#038048;stroke-width:1.0;"/><text fill="#000000" font-family="sans-serif" font-size="11" lengthAdjust="spacing" textLength="50" x="328" y="511.0957">zipLogs()</text><rect fill="#F24D5C" height="6" style="stroke:#C82930;stroke-width:1.0;" width="6" x="316" y="517.416"/><text fill="#000000" font-family="sans-serif" font-size="11" lengthAdjust="spacing" textLength="115" x="328" y="524.0508">_flush(touchNewFile:)</text><rect fill="#F24D5C" height="6" style="stroke:#C82930;stroke-width:1.0;" width="6" x="316" y="530.3711"/><text fill="#000000" font-family="sans-serif" font-size="11" lengthAdjust="spacing" textLength="82" x="328" y="537.0059">flushIfNeeded()</text><!--MD5=[02faa4b556815975f0be0fc219baa381]
class LogFileManager--><rect codeLine="47" fill="#FEFECE" filter="url(#frvwajce7tv57)" height="177.5508" id="LogFileManager" style="stroke:#A80036;stroke-width:1.5;" width="252" x="291" y="603"/><ellipse cx="368.25" cy="619" fill="#ADD1B2" rx="11" ry="11" style="stroke:#A80036;stroke-width:1.0;"/><path d="M370.7231,625.1431 Q370.1421,625.4419 369.5029,625.5913 Q368.8638,625.7407 368.1582,625.7407 Q365.6514,625.7407 364.3315,624.0889 Q363.0117,622.437 363.0117,619.3159 Q363.0117,616.1865 364.3315,614.5347 Q365.6514,612.8828 368.1582,612.8828 Q368.8638,612.8828 369.5112,613.0322 Q370.1587,613.1816 370.7231,613.4805 L370.7231,616.2031 Q370.0923,615.6221 369.4988,615.3523 Q368.9053,615.0825 368.2744,615.0825 Q366.9297,615.0825 366.2449,616.1492 Q365.5601,617.2158 365.5601,619.3159 Q365.5601,621.4077 366.2449,622.4744 Q366.9297,623.541 368.2744,623.541 Q368.9053,623.541 369.4988,623.2712 Q370.0923,623.0015 370.7231,622.4204 Z " fill="#000000"/><text fill="#000000" font-family="sans-serif" font-size="12" lengthAdjust="spacing" textLength="89" x="388.75" y="623.5352">LogFileManager</text><line style="stroke:#A80036;stroke-width:1.5;" x1="292" x2="542" y1="635" y2="635"/><ellipse cx="302" cy="646" rx="3" ry="3" style="stroke:#038048;stroke-width:1.0;fill:none;"/><text fill="#000000" font-family="sans-serif" font-size="11" lengthAdjust="spacing" textLength="94" x="311" y="649.6348">logDirectory: URL</text><rect fill="none" height="6" style="stroke:#C82930;stroke-width:1.0;" width="6" x="299" y="655.9551"/><text fill="#000000" font-family="sans-serif" font-size="11" lengthAdjust="spacing" textLength="132" x="311" y="662.5898">fileManager: FileManager</text><line style="stroke:#A80036;stroke-width:1.5;" x1="292" x2="542" y1="668.9102" y2="668.9102"/><ellipse cx="302" cy="679.9102" fill="#84BE84" rx="3" ry="3" style="stroke:#038048;stroke-width:1.0;"/><text fill="#000000" font-family="sans-serif" font-size="11" lengthAdjust="spacing" textLength="134" x="311" y="683.5449">createLogFile(at url: URL)</text><ellipse cx="302" cy="692.8652" fill="#84BE84" rx="3" ry="3" style="stroke:#038048;stroke-width:1.0;"/><text fill="#000000" font-family="sans-serif" font-size="11" lengthAdjust="spacing" textLength="226" x="311" y="696.5">createEmptyDirectoryIfNeeded(at url: URL)</text><ellipse cx="302" cy="705.8203" fill="#84BE84" rx="3" ry="3" style="stroke:#038048;stroke-width:1.0;"/><text fill="#000000" font-family="sans-serif" font-size="11" lengthAdjust="spacing" textLength="83" x="311" y="709.4551">queryLogFiles()</text><ellipse cx="302" cy="718.7754" fill="#84BE84" rx="3" ry="3" style="stroke:#038048;stroke-width:1.0;"/><text fill="#000000" font-family="sans-serif" font-size="11" lengthAdjust="spacing" textLength="176" x="311" y="722.4102">append(_ data: Data?, at url: URL)</text><ellipse cx="302" cy="731.7305" fill="#84BE84" rx="3" ry="3" style="stroke:#038048;stroke-width:1.0;"/><text fill="#000000" font-family="sans-serif" font-size="11" lengthAdjust="spacing" textLength="88" x="311" y="735.3652">removeAllLogs()</text><ellipse cx="302" cy="744.6855" fill="#84BE84" rx="3" ry="3" style="stroke:#038048;stroke-width:1.0;"/><text fill="#000000" font-family="sans-serif" font-size="11" lengthAdjust="spacing" textLength="103" x="311" y="748.3203">remove(at url: URL)</text><ellipse cx="302" cy="757.6406" fill="#84BE84" rx="3" ry="3" style="stroke:#038048;stroke-width:1.0;"/><text fill="#000000" font-family="sans-serif" font-size="11" lengthAdjust="spacing" textLength="153" x="311" y="761.2754">removeDirectory(at url: URL)</text><ellipse cx="302" cy="770.5957" fill="#84BE84" rx="3" ry="3" style="stroke:#038048;stroke-width:1.0;"/><text fill="#000000" font-family="sans-serif" font-size="11" lengthAdjust="spacing" textLength="154" x="311" y="774.2305">isExistsDirectory(at url: URL)</text><!--MD5=[b3ef3f3f57750c4d92ed04f1c7369e1f]
link LogHandler to Logging.LogHandler--><path codeLine="61" d="M187,722.77 C187,748.9 187,787.78 187,820.76 " fill="none" id="LogHandler-to-Logging.LogHandler" style="stroke:#A80036;stroke-width:1.0;stroke-dasharray:7.0,7.0;"/><polygon fill="none" points="194,820.87,187,840.87,180,820.87,194,820.87" style="stroke:#A80036;stroke-width:1.0;"/><!--MD5=[2cc158e1efebbfbf30746ef34b41a2e4]
link Logger to ProxyLogHandler--><path codeLine="62" d="M196,61.8 C196,78.25 196,101.1 196,122.57 " fill="none" id="Logger-to-ProxyLogHandler" style="stroke:#A80036;stroke-width:1.0;"/><polygon fill="#A80036" points="196,127.7,200,118.7,196,122.7,192,118.7,196,127.7" style="stroke:#A80036;stroke-width:1.0;"/><!--MD5=[306d0c6e2914a100bdaa8929219aabc5]
link ProxyLogHandler to LogHandler--><path codeLine="63" d="M137.42,241.06 C122.65,258.66 108.8,279.25 101,301 C64.71,402.25 73.02,439.15 101,543 C110.94,579.89 132.59,617.06 151.68,644.92 " fill="none" id="ProxyLogHandler-to-LogHandler" style="stroke:#A80036;stroke-width:1.0;stroke-dasharray:7.0,7.0;"/><polygon fill="none" points="157.5,641.03,163.41,661.38,146.1,649.16,157.5,641.03" style="stroke:#A80036;stroke-width:1.0;"/><!--MD5=[79af87213514d6fdd4dfc2b4ba50a66d]
link OSLogHandler to LogHandler--><path codeLine="64" d="M194.35,472.16 C192.74,520.12 190.3,592.71 188.68,640.97 " fill="none" id="OSLogHandler-to-LogHandler" style="stroke:#A80036;stroke-width:1.0;stroke-dasharray:7.0,7.0;"/><polygon fill="none" points="195.67,641.5,188,661.26,181.67,641.03,195.67,641.5" style="stroke:#A80036;stroke-width:1.0;"/><!--MD5=[2a83e143dcb273541e004c9e0e78cbf6]
link FileLogHandler to LogHandler--><path codeLine="65" d="M309.36,543.28 C279.11,579.81 247.71,617.71 224.3,645.97 " fill="none" id="FileLogHandler-to-LogHandler" style="stroke:#A80036;stroke-width:1.0;stroke-dasharray:7.0,7.0;"/><polygon fill="none" points="229.66,650.48,211.51,661.42,218.87,641.55,229.66,650.48" style="stroke:#A80036;stroke-width:1.0;"/><!--MD5=[aa871276548f456af32c71f46dac04ed]
link FileLogHandler to LogFileManager--><path codeLine="66" d="M412.59,543.28 C413.13,561.44 413.68,579.94 414.21,597.42 " fill="none" id="FileLogHandler-to-LogFileManager" style="stroke:#A80036;stroke-width:1.0;"/><polygon fill="#A80036" points="414.37,602.82,418.1113,593.7094,414.2272,597.822,410.1146,593.9379,414.37,602.82" style="stroke:#A80036;stroke-width:1.0;"/><!--MD5=[9e03d2159f5ca433bf910a07acf20ae7]
link ProxyLogHandler to OSLogHandler--><path codeLine="67" d="M196,241.01 C196,279.01 196,329.15 196,366.86 " fill="none" id="ProxyLogHandler-to-OSLogHandler" style="stroke:#A80036;stroke-width:1.0;"/><polygon fill="#A80036" points="196,371.86,200,362.86,196,366.86,192,362.86,196,371.86" style="stroke:#A80036;stroke-width:1.0;"/><!--MD5=[8b52c261d1c9b75bae508ee6c3094676]
link ProxyLogHandler to FileLogHandler--><path codeLine="68" d="M246.21,241.01 C263.65,260.29 283.91,282.7 304.1,305.02 " fill="none" id="ProxyLogHandler-to-FileLogHandler" style="stroke:#A80036;stroke-width:1.0;"/><polygon fill="#A80036" points="307.61,308.9,304.5426,299.541,304.2573,305.1906,298.6076,304.9053,307.61,308.9" style="stroke:#A80036;stroke-width:1.0;"/><!--MD5=[d53b4763edb66c00fc40edcecfb4d6cd]
@startuml
interface Logging.LogHandler {
  +logLevel: Level
  +metadata: Metadata

  +log(level:message:metadata:source:file:function:line:)
}
interface LogHandler {
  +loggerQueue: Queue
}
class Logger
class HadesLogger {
  + hadesHandler(label:)
}
class ProxyLogHandler {
  - handlers: [LogHandler] = []
  - prettyMetadata: String?

  + init(loggerQueue:logLevel:metadata:)
  + add(handler: LogHandler)
  - prettify(_ metadata: Logger.Metadata)
}
class OSLogHandler {
  - defaultLogger: OSLog
  - label: String
  - loggers: [String: OSLog]

  + init(label:category:)
}
class FileLogHandler {
  + bufferSize: Int
  + currentLogFile: LogFile?
  + fileDateFormatter: DateFormatter
  + maximumFileSize: Int
  + maximumNumberOfLogFiles: Int
  - buffer: Data?
  - logFileManager: LogFileManager

  + cleanup()
  + flush()
  + generateNameForLogFile()
  + touchNewLogFile()
  + removeAllLogs()
  + zipLogs()
  - _flush(touchNewFile:)
  - flushIfNeeded()
}
class LogFileManager {
  + logDirectory: URL
  - fileManager: FileManager

  + createLogFile(at url: URL)
  + createEmptyDirectoryIfNeeded(at url: URL)
  + queryLogFiles()
  + append(_ data: Data?, at url: URL)
  + removeAllLogs()
  + remove(at url: URL)
  + removeDirectory(at url: URL)
  + isExistsDirectory(at url: URL)
}

LogHandler ..|> Logging.LogHandler
Logger - -> ProxyLogHandler
ProxyLogHandler ..|> LogHandler
OSLogHandler ..|> LogHandler
FileLogHandler ..|> LogHandler
FileLogHandler - -> LogFileManager
ProxyLogHandler - -> OSLogHandler
ProxyLogHandler - ->  FileLogHandler

@enduml

PlantUML version 1.2021.9(Sun Jul 25 18:13:56 CST 2021)
(GPL source distribution)
Java Runtime: OpenJDK Runtime Environment
JVM: OpenJDK 64-Bit Server VM
Default Encoding: UTF-8
Language: en
Country: CN
--></g></svg>